# xmcd CD database file
#
# Track frame offsets:
#	150
#	21957
#	42217
#	59950
#	84445
#	98840
#	117570
#	139012
#	156577
#	187687
#
# Disc length: 2728 seconds
#
# Revision: 0
# Processed by: cddbd v1.5.2PL0 Copyright (c) Steve Scherf et al.
# Submitted via: CDex 1.70beta1
#
DISCID=880aa60a
DTITLE=Humphrey Lyttelton - Movin' And Groovin'
DYEAR=1900
DGENRE=Jazz
TTITLE0=Rockin' In Rhythm
TTITLE1=Yorkville
TTITLE2=Late Night Final
TTITLE3=One For Buck
TTITLE4=Never No Lament
TTITLE5=Sunday
TTITLE6=Movin' And Groovin'
TTITLE7=Basin Street Blues
TTITLE8=Aunt Hagar's Blues
TTITLE9=South Winds
EXTD=
EXTT0=
EXTT1=
EXTT2=
EXTT3=
EXTT4=
EXTT5=
EXTT6=
EXTT7=
EXTT8=
EXTT9=
PLAYORDER=
